<svg xmlns="http://www.w3.org/2000/svg" version="1.1" xmlns:xlink="http://www.w3.org/1999/xlink" xmlns:svgjs="http://svgjs.com/svgjs" width="1440" height="560" preserveAspectRatio="none" viewBox="0 0 1440 560"><g mask="url(&quot;#SvgjsMask1004&quot;)" fill="none"><rect width="1440" height="560" x="0" y="0" fill="rgba(18, 54, 91, 1)"></rect><path d="M27.17 449.05L40.99 449.05L40.99 462.87L27.17 462.87z" stroke="#037b0b"></path><path d="M1232.13 522.34a40.9 40.9 0 1 0-49.63-65.03z" stroke="#d3b714"></path><path d="M85.46 492.22 a55.47 55.47 0 1 0 110.94 0 a55.47 55.47 0 1 0 -110.94 0z" stroke="#d3b714"></path><path d="M196.85 168.14L202.09 168.14L202.09 173.38L196.85 173.38z" stroke="#d3b714"></path><path d="M472.07 242.73 a16.51 16.51 0 1 0 33.02 0 a16.51 16.51 0 1 0 -33.02 0z" fill="#037b0b"></path><path d="M464.31 99.65L480.05 99.65L480.05 111.08L464.31 111.08z" fill="#037b0b"></path><path d="M954.22 455.1L988.46 455.1L988.46 481.35L954.22 481.35z" stroke="#037b0b"></path><path d="M1256.76 468.98L1296.24 468.98L1296.24 508.46L1256.76 508.46z" fill="#e73635"></path><path d="M932.75 22.42 a40.4 40.4 0 1 0 80.8 0 a40.4 40.4 0 1 0 -80.8 0z" fill="#037b0b"></path><path d="M1349.85 294.36 a24.93 24.93 0 1 0 49.86 0 a24.93 24.93 0 1 0 -49.86 0z" stroke="#037b0b"></path><path d="M351.57 168.21a23.83 23.83 0 1 0-30.2 36.88z" fill="#037b0b"></path><path d="M495.15 121.1a0.21 0.21 0 1 0 0.4-0.11z" fill="#037b0b"></path><path d="M419.14 551.36L438.57 551.36L438.57 585.48L419.14 585.48z" fill="#037b0b"></path><path d="M1002.53 539.59a39.55 39.55 0 1 0 70.72 35.42z" stroke="#e73635"></path><path d="M915.46 243.98a38.07 38.07 0 1 0-54.7 52.97z" fill="#e73635"></path><path d="M192.71 35.19 a0.94 0.94 0 1 0 1.88 0 a0.94 0.94 0 1 0 -1.88 0z" fill="#d3b714"></path><path d="M853.99 389.65L908.85 389.65L908.85 444.51L853.99 444.51z" fill="#e73635"></path><path d="M93.43 445.74L109.52 445.74L109.52 481.93L93.43 481.93z" stroke="#e73635"></path><path d="M770.94 23.4L774.76 23.4L774.76 46.63L770.94 46.63z" stroke="#e73635"></path><path d="M129.55 119.04a55.75 55.75 0 1 0-82.33-75.2z" fill="#d3b714"></path><path d="M234.96 367.23 a7.2 7.2 0 1 0 14.4 0 a7.2 7.2 0 1 0 -14.4 0z" fill="#e73635"></path><path d="M419.77 226.46L472.84 226.46L472.84 279.53L419.77 279.53z" stroke="#e73635"></path><path d="M46.28 172.15L74.73 172.15L74.73 192.38L46.28 192.38z" stroke="#e73635"></path><path d="M671.14 313.82L717.54 313.82L717.54 360.22L671.14 360.22z" fill="#e73635"></path><path d="M188.2 519.36L229.68 519.36L229.68 560.84L188.2 560.84z" fill="#037b0b"></path><path d="M1007.55 296.53L1030.11 296.53L1030.11 319.09L1007.55 319.09z" fill="#037b0b"></path><path d="M332.15 397.51 a19.66 19.66 0 1 0 39.32 0 a19.66 19.66 0 1 0 -39.32 0z" stroke="#037b0b"></path><path d="M106.78-17.16a44.82 44.82 0 1 0-72.84 52.25z" stroke="#d3b714"></path><path d="M858.42 554.47L913.68 554.47L913.68 609.73L858.42 609.73z" stroke="#e73635"></path><path d="M542.31 96.17L558.31 96.17L558.31 114.7L542.31 114.7z" stroke="#d3b714"></path><path d="M178.59 186.05 a14.38 14.38 0 1 0 28.76 0 a14.38 14.38 0 1 0 -28.76 0z" stroke="#d3b714"></path><path d="M1337.54 224.02 a16.56 16.56 0 1 0 33.12 0 a16.56 16.56 0 1 0 -33.12 0z" stroke="#e73635"></path><path d="M1181.41 444.11 a40.23 40.23 0 1 0 80.46 0 a40.23 40.23 0 1 0 -80.46 0z" fill="#037b0b"></path></g><defs><mask id="SvgjsMask1004"><rect width="1440" height="560" fill="#ffffff"></rect></mask></defs></svg>