<svg xmlns="http://www.w3.org/2000/svg" version="1.1" xmlns:xlink="http://www.w3.org/1999/xlink" xmlns:svgjs="http://svgjs.com/svgjs" width="1440" height="560" preserveAspectRatio="none" viewBox="0 0 1440 560"><g mask="url(&quot;#SvgjsMask1014&quot;)" fill="none"><rect width="1440" height="560" x="0" y="0" fill="#0e2a47"></rect><path d="M1407.35 29.28L1449.53 29.28L1449.53 49.21L1407.35 49.21z" stroke="#d3b714"></path><path d="M1131.36 210.33L1137.77 210.33L1137.77 229.25L1131.36 229.25z" fill="#d3b714"></path><path d="M1269.88 350.05 a48.79 48.79 0 1 0 97.58 0 a48.79 48.79 0 1 0 -97.58 0z" fill="#e73635"></path><path d="M1015.59 379.47a49.57 49.57 0 1 0 47.09-87.24z" fill="#037b0b"></path><path d="M1145.48 401.75a30.23 30.23 0 1 0 1.08-60.45z" fill="#d3b714"></path><path d="M1281.7 452.34L1296.19 452.34L1296.19 466.83L1281.7 466.83z" stroke="#d3b714"></path><path d="M358.55 185.81 a34.73 34.73 0 1 0 69.46 0 a34.73 34.73 0 1 0 -69.46 0z" stroke="#e73635"></path><path d="M265.09 420.7a28.89 28.89 0 1 0-28.92 50.02z" fill="#e73635"></path><path d="M1318.26 336.62a28.11 28.11 0 1 0 2.79 56.15z" stroke="#e73635"></path><path d="M334.51 66.13L354.03 66.13L354.03 85.65L334.51 85.65z" fill="#e73635"></path><path d="M71.64 503.83 a18 18 0 1 0 36 0 a18 18 0 1 0 -36 0z" fill="#d3b714"></path><path d="M283.54 192.86 a52.45 52.45 0 1 0 104.9 0 a52.45 52.45 0 1 0 -104.9 0z" stroke="#037b0b"></path><path d="M644.67 336.08L698.95 336.08L698.95 390.36L644.67 390.36z" fill="#037b0b"></path><path d="M102.36 494.57 a2.88 2.88 0 1 0 5.76 0 a2.88 2.88 0 1 0 -5.76 0z" stroke="#e73635"></path><path d="M309.4 132.56L312.48 132.56L312.48 135.64L309.4 135.64z" stroke="#d3b714"></path><path d="M1034.92 400.98L1051.12 400.98L1051.12 417.18L1034.92 417.18z" fill="#d3b714"></path><path d="M1121.62 390.67a26.61 26.61 0 1 0 45.7-27.27z" fill="#e73635"></path><path d="M772.52 318.18L795.07 318.18L795.07 336.83L772.52 336.83z" stroke="#d3b714"></path><path d="M637.55 266.06L676.76 266.06L676.76 305.27L637.55 305.27z" stroke="#037b0b"></path><path d="M1044.69 210.73L1076.09 210.73L1076.09 242.13L1044.69 242.13z" fill="#e73635"></path><path d="M1318.42 39.37 a40.48 40.48 0 1 0 80.96 0 a40.48 40.48 0 1 0 -80.96 0z" stroke="#037b0b"></path><path d="M595.04 399.63a18.53 18.53 0 1 0 33.1-16.68z" fill="#037b0b"></path><path d="M586.27 167.86 a39.54 39.54 0 1 0 79.08 0 a39.54 39.54 0 1 0 -79.08 0z" stroke="#e73635"></path><path d="M67.82 435.06 a21.92 21.92 0 1 0 43.84 0 a21.92 21.92 0 1 0 -43.84 0z" fill="#037b0b"></path><path d="M461.86 227.08 a6.76 6.76 0 1 0 13.52 0 a6.76 6.76 0 1 0 -13.52 0z" fill="#d3b714"></path><path d="M1296.68 412.98L1337.16 412.98L1337.16 453.46L1296.68 453.46z" fill="#e73635"></path><path d="M267.2 68.51L281.33 68.51L281.33 75.88L267.2 75.88z" fill="#037b0b"></path><path d="M1031.9 221.1L1055.28 221.1L1055.28 246.52L1031.9 246.52z" stroke="#037b0b"></path><path d="M581.86 443.88L631.95 443.88L631.95 484.15L581.86 484.15z" fill="#d3b714"></path><path d="M853.1 193.07a17.52 17.52 0 1 0 12.67-32.67z" stroke="#e73635"></path><path d="M313.06 139.83a11.17 11.17 0 1 0 19.29-11.26z" stroke="#d3b714"></path><path d="M1324.15 394.3 a39.77 39.77 0 1 0 79.54 0 a39.77 39.77 0 1 0 -79.54 0z" stroke="#d3b714"></path><path d="M880.9 523.1L936.11 523.1L936.11 578.31L880.9 578.31z" stroke="#037b0b"></path></g><defs><mask id="SvgjsMask1014"><rect width="1440" height="560" fill="#ffffff"></rect></mask></defs></svg>