<svg xmlns="http://www.w3.org/2000/svg" version="1.1" xmlns:xlink="http://www.w3.org/1999/xlink" xmlns:svgjs="http://svgjs.com/svgjs" width="1440" height="560" preserveAspectRatio="none" viewBox="0 0 1440 560"><g mask="url(&quot;#SvgjsMask1036&quot;)" fill="none"><rect width="1440" height="560" x="0" y="0" fill="url(#SvgjsLinearGradient1037)"></rect><path d="M1440 0L888.46 0L1440 245.64z" fill="rgba(255, 255, 255, .1)"></path><path d="M888.46 0L1440 245.64L1440 300.79999999999995L819.24 0z" fill="rgba(255, 255, 255, .075)"></path><path d="M819.24 0L1440 300.79999999999995L1440 419.97999999999996L798.59 0z" fill="rgba(255, 255, 255, .05)"></path><path d="M798.59 0L1440 419.97999999999996L1440 516.92L482.20000000000005 0z" fill="rgba(255, 255, 255, .025)"></path><path d="M0 560L659.06 560L0 376.86z" fill="rgba(0, 0, 0, .1)"></path><path d="M0 376.86L659.06 560L737.5 560L0 327.59000000000003z" fill="rgba(0, 0, 0, .075)"></path><path d="M0 327.59000000000003L737.5 560L971.05 560L0 192.05000000000004z" fill="rgba(0, 0, 0, .05)"></path><path d="M0 192.05L971.05 560L1280.94 560L0 188.73000000000002z" fill="rgba(0, 0, 0, .025)"></path></g><defs><mask id="SvgjsMask1036"><rect width="1440" height="560" fill="#ffffff"></rect></mask><linearGradient x1="15.28%" y1="-39.29%" x2="84.72%" y2="139.29%" gradientUnits="userSpaceOnUse" id="SvgjsLinearGradient1037"><stop stop-color="rgba(70, 74, 143, 1)" offset="0"></stop><stop stop-color="rgba(226, 152, 222, 1)" offset="1"></stop></linearGradient></defs></svg>